# AST/ASF file generated using VICON BodyLanguage
# -----------------------------------------------
:version 1.10
:name VICON
:units
  mass 1.0
  length 0.45
  angle deg
:documentation
   .ast/.asf automatically generated from VICON data using
   VICON BodyBuilder and BodyLanguage model FoxedUp or BRILLIANT.MOD
:root
   order TX TY TZ RX RY RZ
   axis XYZ
   position 0 0 0  
   orientation 0 0 0 
:bonedata
  begin
     id 1 
     name lhipjoint
     direction 0.541323 -0.757556 0.364798 
     length 2.47576 
     axis 0 0 0  XYZ
  end
  begin
     id 2 
     name lfemur
     direction 0.34202 -0.939693 0  
     length 7.46493  
     axis 0 0 20  XYZ
    dof rx ry rz
    limits (-160.0 20.0)
           (-70.0 70.0)
           (-60.0 70.0)
  end
  begin
     id 3 
     name ltibia
     direction 0.34202 -0.939693 0   
     length 7.73805   
     axis 0 0 20   XYZ
    dof rx
    limits (-10.0 170.0)
  end
  begin
     id 4 
     name lfoot
     direction 0.107174 -0.294458 0.949636   
     length 2.25864   
     axis -90 7.62852e-016 20   XYZ
    dof rx rz
    limits (-45.0 90.0)
           (-70.0 20.0)
  end
  begin
     id 5 
     name ltoes
     direction 1.53606e-011 -4.21934e-011 1   
     length 1.12451   
     axis -90 7.62852e-016 20   XYZ
    dof rx
    limits (-90.0 20.0)
  end
  begin
     id 6 
     name rhipjoint
     direction -0.524745 -0.766967 0.36933   
     length 2.44538  
     axis 0 0 0  XYZ 
  end
  begin
     id 7 
     name rfemur
     direction -0.34202 -0.939693 0   
     length 7.61604   
     axis 0 0 -20   XYZ
    dof rx ry rz
    limits (-160.0 20.0)
           (-70.0 70.0)
           (-70.0 60.0)
  end
  begin
     id 8 
     name rtibia
     direction -0.34202 -0.939693 0   
     length 7.61056   
     axis 0 0 -20   XYZ
    dof rx
    limits (-10.0 170.0)
 end
 begin
     id 9 
     name rfoot
     direction -0.12616 -0.346623 0.929482   
     length 2.46372  
     axis -90 -7.62852e-016 -20   XYZ
    dof rx rz
    limits (-45.0 90.0)
           (-20.0 70.0)
  end
  begin
     id 10 
     name rtoes
     direction -1.53531e-011 -4.22004e-011 1   
     length 1.21611   
     axis -90 -7.62852e-016 -20   XYZ
    dof rx
    limits (-90.0 20.0)
  end
  begin
     id 11 
     name lowerback
     direction -0.000778023 0.997293 -0.0735223   
     length 2.06139   
     axis 0 0 0   XYZ
    dof rx ry rz
    limits (-20.0 45.0)
           (-30.0 30.0)
           (-30.0 30.0)
  end
  begin
     id 12 
     name upperback
     direction 0.0222598 0.999722 -0.0078355   
     length 2.06383   
     axis 0 0 0   XYZ
    dof rx ry rz
    limits (-20.0 45.0)
           (-30.0 30.0)
           (-30.0 30.0)
  end
  begin
     id 13 
     name thorax
     direction 0.0219654 0.999405 0.0265994   
     length 2.07163   
     axis 0 0 0   XYZ
    dof rx ry rz
    limits (-20.0 45.0)
           (-30.0 30.0)
           (-30.0 30.0)
  end
  begin
     id 14 
     name lowerneck
     direction 0.0213282 0.988147 0.15202   
     length 1.75969   
     axis 0 0 0   XYZ
    dof rx ry rz
    limits (-20.0 45.0)
           (-30.0 30.0)
           (-30.0 30.0)
  end
  begin
     id 15 
     name upperneck
     direction -0.0546456 0.982624 -0.177379   
     length 1.79244   
     axis 0 0 0   XYZ
    dof rx ry rz
    limits (-20.0 45.0)
           (-30.0 30.0)
           (-30.0 30.0)
  end
  begin
     id 16
     name head
     direction -0.0199987 0.996855 -0.076686  
     length 1.80555  
     axis 0 0 0   XYZ
    dof rx ry rz
    limits (-20.0 45.0)
           (-30.0 30.0)
           (-30.0 30.0)
  end
  begin
     id 17 
     name lclavicle
     direction 0.929565 0.363219 -0.063096  
     length 3.55722  
     axis 0 0 0   XYZ
    dof ry rz
    limits (-20.0 10.0)
           (0.0 20.0)
  end
  begin
     id 18 
     name lhumerus
     direction 1 -4.48993e-011 -2.36203e-027   
     length 4.92785   
     axis 180 -30 -90   XYZ
    dof rx ry rz
    limits (-60.0 90.0)
           (-90.0 90.0)
           (-90.0 90.0)
  end
  begin
     id 19
     name lradius
     direction 1 -4.48947e-011 2.02997e-027   
     length 3.44052   
     axis 180 -30 -90   XYZ
    dof rx
    limits (-10.0 170.0)
  end
  begin
     id 20
     name lwrist
     direction 1 -4.48962e-011 1.45991e-027   
     length 1.72026   
     axis 1.49639e-024 90 90   XYZ
    dof ry
    limits (-180.0 0.0)
 end
  begin
     id 21 
     name lhand
     direction 1 -4.48984e-011 2.91906e-027   
     length 0.654326   
     axis -1.863e-015 90 90   XYZ
    dof rx rz
    limits (-90.0 90.0)
           (-45.0 45.0)
  end
  begin
     id 22 
     name lfingers
     direction 1 -4.48961e-011 5.83968e-027   
     length 0.527534   
     axis -3.72598e-015 90 90   XYZ
    dof rx
    limits (0.0 90.0)
  end
  begin
     id 23
     name lthumb
     direction 0.707107 -6.34963e-011 0.707107   
     length 0.757437   
     axis -90 45 -6.68868e-015   XYZ
    dof rx rz
    limits (-45.0 45.0)
           (-45.0 45.0)
  end
  begin
     id 24 
     name rclavicle
     direction -0.902944 0.422599 -0.0781198   
     length 3.54432  
     axis 0 0 0   XYZ 
    dof ry rz
    limits (-10.0 20.0)
           (-20.0 0.0)
  end
  begin
     id 25 
     name rhumerus
     direction -1 -4.48953e-011 -4.75835e-028  
     length 5.09181   
     axis 180 30 90   XYZ
    dof rx ry rz
    limits (-90.0 60.0)
           (-90.0 90.0)
           (-90.0 90.0)
  end
  begin
     id 26 
     name rradius
     direction -1 -4.48986e-011 -3.25889e-027   
     length 3.49865   
     axis 180 30 90   XYZ
    dof rx
    limits (-10.0 170.0)
  end
  begin
     id 27 
     name rwrist
     direction -1 -4.48963e-011 1.45989e-027   
     length 1.74933   
     axis 1.49639e-024 -90 -90   XYZ
    dof ry
    limits (-180.0 0.0)
  end
  begin
     id 28
     name rhand
     direction -1 -4.49003e-011 2.91844e-027   
     length 0.66641   
     axis -1.863e-015 -90 -90   XYZ
    dof rx rz
    limits (-90.0 90.0)
           (-45.0 45.0)
  end
  begin
     id 29
     name rfingers
     direction -1 -4.48973e-011 5.83886e-027   
     length 0.537277   
     axis -3.72598e-015 -90 -90   XYZ
    dof rx
    limits (0.0 90.0)
  end
  begin
     id 30
     name rthumb
     direction -0.707107 -6.34976e-011 0.707107   
     length 0.771425   
     axis -90 -45 6.68868e-015   XYZ
    dof rx rz
    limits (-45.0 45.0)
           (-45.0 45.0)
  end
:hierarchy
  begin
    root lhipjoint rhipjoint lowerback
    lhipjoint lfemur
    lfemur ltibia
    ltibia lfoot
    lfoot ltoes
    rhipjoint rfemur
    rfemur rtibia
    rtibia rfoot
    rfoot rtoes
    lowerback upperback
    upperback thorax
    thorax lowerneck lclavicle rclavicle
    lowerneck upperneck
    upperneck head
    lclavicle lhumerus
    lhumerus lradius
    lradius lwrist
    lwrist lhand lthumb
    lhand lfingers
    rclavicle rhumerus
    rhumerus rradius
    rradius rwrist
    rwrist rhand rthumb
    rhand rfingers
  end

#!OML:ASF H:\LiuWeirdWalks\Patient Classification 1\Patient 1\Session 1\male.ASF
:FULLY-SPECIFIED
:DEGREES
70
root 1.17147 17.6848 -31.5902 -0.388007 3.83749 -3.84629
lowerback 6.57222 0.435631 -1.61547
upperback -1.11094 0.549531 2.13071
thorax -4.88075 0.349466 3.0652
lowerneck -19.4239 0.334461 10.5114
upperneck 22.2002 -0.821091 -7.72214
head 10.2099 -0.417534 -4.64617
rclavicle 7.31058e-015 5.86415e-015
rhumerus -36.0843 -12.7597 -75.5695
rradius 27.1907
rwrist -4.17902
rhand -15.0664 -3.85164
rfingers 7.12502
rthumb 11.1007 -33.5381
lclavicle 7.31058e-015 5.86415e-015
lhumerus -35.0136 1.21379 83.7171
lradius 26.1632
lwrist 2.4722
lhand -12.8143 -2.39861
lfingers 7.12502
lthumb 13.2722 27.1588
rfemur -13.1702 -3.72238 18.1193
rtibia 53.9081
rfoot -6.18552 -10.9852
rtoes -22.1105
lfemur -10.2903 -0.474065 -21.8343
ltibia 33.2662
lfoot -14.9845 16.9805
ltoes -6.1537
71
root 1.17822 17.6841 -31.5899 -0.431158 3.66479 -3.76836
lowerback 6.52592 0.47266 -1.68963
upperback -1.0702 0.591444 2.10318
thorax -4.81527 0.37059 3.07376
lowerneck -19.328 0.340834 10.5084
upperneck 22.2744 -0.81243 -7.66923
head 10.2201 -0.404543 -4.62622
rclavicle 6.69151e-015 2.90723e-015
rhumerus -36.1726 -12.6325 -75.649
rradius 27.4068
rwrist -4.2144
rhand -15.0353 -3.79665
rfingers 7.12502
rthumb 11.1307 -33.4814
lclavicle 6.69151e-015 2.90723e-015
lhumerus -35.0573 1.13246 83.7179
lradius 25.9851
lwrist 2.22085
lhand -12.7038 -2.42121
lfingers 7.12502
lthumb 13.3787 27.1292
rfemur -13.263 -3.72477 17.9664
rtibia 54.112
rfoot -6.06205 -10.7862
rtoes -21.9994
lfemur -10.1779 -0.231948 -21.9181
ltibia 33.1665
lfoot -15.0252 16.8692
ltoes -6.14582
72
root 1.18679 17.683 -31.5896 -0.471521 3.48966 -3.62732
lowerback 6.48426 0.671729 -1.67679
upperback -1.03256 0.847456 1.87483
thorax -4.7652 0.492653 2.80089
lowerneck -19.2248 0.0368961 10.3981
upperneck 22.3793 -1.29192 -7.2787
head 10.1933 -0.584536 -4.53064
rclavicle 7.52897e-015 7.45443e-015
rhumerus -36.4512 -13.1987 -75.6706
rradius 27.6624
rwrist -4.18002
rhand -15.0292 -3.74942
rfingers 7.12502
rthumb 11.1366 -33.4339
lclavicle 7.52897e-015 7.45443e-015
lhumerus -34.9867 0.369622 83.7256
lradius 25.813
lwrist 2.10899
lhand -12.5547 -2.37595
lfingers 7.12502
lthumb 13.5224 27.165
rfemur -13.3936 -3.77657 17.718
rtibia 54.3779
rfoot -5.91682 -10.5323
rtoes -21.868
lfemur -10.0462 -0.0388308 -22.0926
ltibia 33.0393
lfoot -15.0508 16.8228
ltoes -6.09843
73
root 1.197 17.6814 -31.5896 -0.510558 3.30315 -3.46632
lowerback 6.45481 0.935639 -1.60354
upperback -1.00209 1.19093 1.5607
thorax -4.729 0.655489 2.39602
lowerneck -19.0982 -0.388051 10.2533
upperneck 22.4527 -1.96494 -6.7481
head 10.1371 -0.840454 -4.40169
rclavicle -3.89338e-015 -1.2921e-014
rhumerus -36.8072 -14.0772 -75.655
rradius 27.9178
rwrist -4.10061
rhand -15.0329 -3.69417
rfingers 7.12502
rthumb 11.1331 -33.3788
lclavicle -3.89338e-015 -1.2921e-014
lhumerus -34.877 -0.670283 83.7252
lradius 25.6466
lwrist 2.06353
lhand -12.3998 -2.29368
lfingers 7.12502
lthumb 13.6717 27.2373
rfemur -13.5721 -3.85759 17.4298
rtibia 54.7081
rfoot -5.72527 -10.2404
rtoes -21.7303
lfemur -9.90602 0.0969678 -22.3092
ltibia 32.8981
lfoot -15.0605 16.8597
ltoes -6.02523
74
root 1.2078 17.6796 -31.5908 -0.548457 3.13962 -3.32868
lowerback 6.46527 1.24188 -1.4418
upperback -0.990912 1.59481 1.18411
thorax -4.7292 0.845539 1.87034
lowerneck -18.9649 -0.892648 10.15
upperneck 22.498 -2.77745 -6.15628
head 10.0632 -1.15076 -4.27381
rclavicle -4.4944e-015 6.55989e-015
rhumerus -37.2487 -15.2085 -75.6052
rradius 28.1802
rwrist -4.00833
rhand -15.049 -3.64529
rfingers 7.12502
rthumb 11.1175 -33.3308
lclavicle -4.4944e-015 6.55989e-015
lhumerus -34.7504 -1.9514 83.7136
lradius 25.4972
lwrist 2.08834
lhand -12.2648 -2.13479
lfingers 7.12502
lthumb 13.8019 27.3874
rfemur -13.7991 -3.97188 17.165
rtibia 55.1012
rfoot -5.48153 -9.9498
rtoes -21.5671
lfemur -9.77571 0.172959 -22.5107
ltibia 32.7585
lfoot -15.0569 16.9452
ltoes -5.91669
75
root 1.21863 17.6778 -31.5942 -0.570265 3.01546 -3.22754
lowerback 6.48961 1.36456 -1.37796
upperback -0.980164 1.75512 1.00846
thorax -4.73112 0.920542 1.63461
lowerneck -18.8803 -1.10799 10.0753
upperneck 22.5334 -3.12068 -5.8682
head 10.0361 -1.27934 -4.20069
rclavicle 2.36243e-014 5.76476e-015
rhumerus -37.4682 -15.6938 -75.5808
rradius 28.3829
rwrist -4.0019
rhand -15.0665 -3.58726
rfingers 7.12502
rthumb 11.1006 -33.2737
lclavicle 2.36243e-014 5.76476e-015
lhumerus -34.7233 -2.47618 83.6806
lradius 25.367
lwrist 2.0088
lhand -12.1432 -2.04993
lfingers 7.12502
lthumb 13.919 27.4642
rfemur -14.0956 -4.12505 16.9469
rtibia 55.5567
rfoot -5.16747 -9.67504
rtoes -21.3931
lfemur -9.68388 0.193648 -22.6774
ltibia 32.6328
lfoot -15.0386 17.0561
ltoes -5.76914
76
root 1.2293 17.6758 -31.5998 -0.579273 2.93271 -3.15181
lowerback 6.53535 1.33469 -1.41611
upperback -0.99009 1.71168 1.00845
thorax -4.76677 0.900355 1.6596
lowerneck -18.829 -1.03695 10.1371
upperneck 22.5604 -3.01479 -5.94491
head 10.0433 -1.23328 -4.22489
rclavicle -2.69291e-015 3.97569e-016
rhumerus -37.5432 -15.6387 -75.5523
rradius 28.5331
rwrist -4.06112
rhand -15.0812 -3.51741
rfingers 7.12502
rthumb 11.0864 -33.2046
lclavicle -2.69291e-015 3.97569e-016
lhumerus -34.8212 -2.36326 83.6455
lradius 25.2658
lwrist 1.87059
lhand -12.0219 -2.00383
lfingers 7.12502
lthumb 14.0359 27.5022
rfemur -14.4547 -4.31694 16.7658
rtibia 56.075
rfoot -4.78789 -9.42393
rtoes -21.1805
lfemur -9.62862 0.178818 -22.8174
ltibia 32.5261
lfoot -15.0142 17.1688
ltoes -5.59126
77
root 1.23978 17.6737 -31.6068 -0.581965 2.88843 -3.07857
lowerback 6.60701 1.16309 -1.56787
upperback -1.02185 1.47698 1.16526
thorax -4.83926 0.791427 1.93154
lowerneck -18.7767 -0.74529 10.2029
upperneck 22.61 -2.54048 -6.25575
head 10.0878 -1.04426 -4.28817
rclavicle -5.69332e-015 1.47101e-014
rhumerus -37.4976 -15.0674 -75.5227
rradius 28.6409
rwrist -4.18492
rhand -15.0806 -3.43572
rfingers 7.12502
rthumb 11.087 -33.1229
lclavicle -5.69332e-015 1.47101e-014
lhumerus -35.0511 -1.6578 83.605
lradius 25.191
lwrist 1.67277
lhand -11.9199 -2.08948
lfingers 7.12502
lthumb 14.1342 27.4098
rfemur -14.8614 -4.54322 16.5936
rtibia 56.6584
rfoot -4.35651 -9.19724
rtoes -20.8917
lfemur -9.59244 0.144785 -22.9544
ltibia 32.4303
lfoot -14.9804 17.2677
ltoes -5.41035
78
root 1.25009 17.6715 -31.6143 -0.588884 2.8507 -3.00401
lowerback 6.70795 1.0293 -1.70003
upperback -1.06036 1.29217 1.28648
thorax -4.93416 0.706653 2.15048
lowerneck -18.7341 -0.51803 10.2649
upperneck 22.6731 -2.16952 -6.51211
head 10.1323 -0.896481 -4.34511
rclavicle -7.53208e-016 6.75868e-015
rhumerus -37.4966 -14.672 -75.459
rradius 28.7412
rwrist -4.31299
rhand -15.0851 -3.36659
rfingers 7.12502
rthumb 11.0826 -33.054
lclavicle -7.53208e-016 6.75868e-015
lhumerus -35.2676 -1.0994 83.5677
lradius 25.1454
lwrist 1.5458
lhand -11.8118 -2.17566
lfingers 7.12502
lthumb 14.2384 27.3163
rfemur -15.305 -4.77571 16.4278
rtibia 57.3062
rfoot -3.87396 -9.00247
rtoes -20.5352
lfemur -9.55342 0.124621 -23.0896
ltibia 32.3335
lfoot -14.9423 17.3466
ltoes -5.23536
79
root 1.26105 17.6688 -31.6212 -0.609269 2.79333 -2.88302
lowerback 6.81669 0.914585 -1.86467
upperback -1.09582 1.12857 1.38444
thorax -5.03008 0.633228 2.362
lowerneck -18.6812 -0.302057 10.3126
upperneck 22.7303 -1.81665 -6.73589
head 10.1732 -0.754475 -4.38974
rclavicle -1.46045e-014 1.49089e-015
rhumerus -37.513 -14.3226 -75.3864
rradius 28.8386
rwrist -4.47483
rhand -15.1098 -3.34446
rfingers 7.12502
rthumb 11.0588 -33.0331
lclavicle -1.46045e-014 1.49089e-015
lhumerus -35.4865 -0.576317 83.5296
lradius 25.122
lwrist 1.46319
lhand -11.7175 -2.22445
lfingers 7.12502
lthumb 14.3292 27.2611
rfemur -15.7661 -5.00639 16.2047
rtibia 58.016
rfoot -3.36308 -8.81843
rtoes -20.1202
lfemur -9.48663 0.133827 -23.2787
ltibia 32.2262
lfoot -14.904 17.418
ltoes -5.09412
80
root 1.27235 17.6659 -31.6274 -0.649088 2.70505 -2.71267
lowerback 6.93097 0.874007 -2.02797
upperback -1.12258 1.05952 1.40195
thorax -5.12268 0.605434 2.47889
lowerneck -18.6096 -0.189148 10.3512
upperneck 22.7879 -1.63056 -6.85407
head 10.1967 -0.677332 -4.41576
rclavicle 9.15497e-015 4.07509e-015
rhumerus -37.6035 -14.211 -75.3007
rradius 28.9506
rwrist -4.67491
rhand -15.1708 -3.40497
rfingers 7.12502
rthumb 11 -33.0968
lclavicle 9.15497e-015 4.07509e-015
lhumerus -35.6622 -0.313937 83.4981
lradius 25.1105
lwrist 1.45068
lhand -11.6576 -2.25203
lfingers 7.12502
lthumb 14.387 27.2294
rfemur -16.2332 -5.21467 15.9225
rtibia 58.7821
rfoot -2.8427 -8.66005
rtoes -19.6138
lfemur -9.38464 0.165105 -23.5248
ltibia 32.1051
lfoot -14.8564 17.4959
ltoes -4.98251
81
root 1.28311 17.6631 -31.6329 -0.709572 2.58221 -2.54489
lowerback 7.0401 0.930228 -2.13098
upperback -1.12146 1.12 1.32954
thorax -5.18763 0.637968 2.45335
lowerneck -18.5604 -0.213517 10.3791
upperneck 22.8199 -1.67572 -6.8221
head 10.1948 -0.690582 -4.4149
rclavicle -7.43501e-015 -6.75868e-015
rhumerus -37.7558 -14.4463 -75.1994
rradius 29.0646
rwrist -4.86212
rhand -15.2461 -3.49442
rfingers 7.12502
rthumb 10.9274 -33.1901
lclavicle -7.43501e-015 -6.75868e-015
lhumerus -35.723 -0.418923 83.48
lradius 25.0811
lwrist 1.51217
lhand -11.6361 -2.23181
lfingers 7.12502
lthumb 14.4076 27.2481
rfemur -16.7029 -5.37823 15.6513
rtibia 59.5933
rfoot -2.30696 -8.54677
rtoes -19.0072
lfemur -9.25433 0.225871 -23.7634
ltibia 31.9763
lfoot -14.8077 17.571
ltoes -4.90309
